<?xml version="1.0" encoding="UTF-8"?>
<svg width="28px" height="28px" viewBox="0 0 28 28" version="1.1" xmlns="http://www.w3.org/2000/svg" xmlns:xlink="http://www.w3.org/1999/xlink">
    <title>Instagram</title>
    <g id="Instagram" stroke="none" stroke-width="1">
        <path d="M8.47368421,0 C3.80136842,0 0,3.80136842 0,8.47368421 L0,19.5263158 C0,24.1986316 3.80136842,28 8.47368421,28 L19.5263158,28 C24.1986316,28 28,24.1986316 28,19.5263158 L28,8.47368421 C28,3.80136842 24.1986316,0 19.5263158,0 L8.47368421,0 Z M21.3684211,5.15789474 C22.1826316,5.15789474 22.8421053,5.81736842 22.8421053,6.63157895 C22.8421053,7.44505263 22.1826316,8.10526316 21.3684211,8.10526316 C20.5542105,8.10526316 19.8947368,7.44505263 19.8947368,6.63157895 C19.8947368,5.81736842 20.5542105,5.15789474 21.3684211,5.15789474 Z M14,6.63157895 C18.0629474,6.63157895 21.3684211,9.93705263 21.3684211,14 C21.3684211,18.0629474 18.0629474,21.3684211 14,21.3684211 C9.93705263,21.3684211 6.63157895,18.0629474 6.63157895,14 C6.63157895,9.93705263 9.93705263,6.63157895 14,6.63157895 Z M14,8.84210526 C12.1572617,8.84210526 10.4545012,9.8251944 9.53313204,11.4210526 C8.61176286,13.0169108 8.61176286,14.9830892 9.53313204,16.5789474 C10.4545012,18.1748056 12.1572617,19.1578947 14,19.1578947 C15.8427383,19.1578947 17.5454988,18.1748056 18.466868,16.5789474 C19.3882371,14.9830892 19.3882371,13.0169108 18.466868,11.4210526 C17.5454988,9.8251944 15.8427383,8.84210526 14,8.84210526 L14,8.84210526 Z" id="Shape" fill="#000000" fill-rule="nonzero"></path>
    </g>
</svg>
