<?xml version="1.0" encoding="UTF-8"?>
<svg width="28px" height="28px" viewBox="0 0 28 28" version="1.1" xmlns="http://www.w3.org/2000/svg" xmlns:xlink="http://www.w3.org/1999/xlink">
    <title>Instagram</title>
    <g id="Instagram" stroke="none" stroke-width="1" fill="none" fill-rule="evenodd">
        <g id="icons8-instagram" fill="#000000" fill-rule="nonzero">
            <path d="M8.47368421,0 C3.80136842,0 0,3.80136842 0,8.47368421 L0,19.5263158 C0,24.1986316 3.80136842,28 8.47368421,28 L19.5263158,28 C24.1986316,28 28,24.1986316 28,19.5263158 L28,8.47368421 C28,3.80136842 24.1986316,0 19.5263158,0 L8.47368421,0 Z M22.3684211,4.15789474 C23.1826316,4.15789474 23.8421053,4.81736842 23.8421053,5.63157895 C23.8421053,6.44505263 23.1826316,7.10526316 22.3684211,7.10526316 C21.5542105,7.10526316 20.8947368,6.44505263 20.8947368,5.63157895 C20.8947368,4.81736842 21.5542105,4.15789474 22.3684211,4.15789474 Z M14,8 C17.3084,8 20,10.6916 20,14 C20,17.3084 17.3084,20 14,20 C10.6916,20 8,17.3084 8,14 C8,10.6916 10.6916,8 14,8 Z M14,10.0000001 C12.5709377,10.0000001 11.2504296,10.7623957 10.5358984,12.0000001 C9.8213672,13.2376043 9.8213672,14.7623957 10.5358984,16.0000001 C11.2504296,17.2376043 12.5709377,18.0000001 14,18.0000001 C15.4290623,18.0000001 16.7495704,17.2376043 17.4641016,16.0000001 C18.1786328,14.7623957 18.1786328,13.2376043 17.4641016,12.0000001 C16.7495704,10.7623957 15.4290623,10.0000001 14,10.0000001 L14,10.0000001 Z" id="Shape"></path>
        </g>
    </g>
</svg>