<?xml version="1.0" encoding="UTF-8"?>
<svg width="28px" height="28px" viewBox="0 0 28 28" version="1.1" xmlns="http://www.w3.org/2000/svg" xmlns:xlink="http://www.w3.org/1999/xlink">
    <title>Twitter</title>
    <g id="Twitter" stroke="none" stroke-width="1" fill="none" fill-rule="evenodd">
        <g id="twitter" transform="translate(1.000000, 3.000000)" fill="#000000" fill-rule="nonzero">
            <path d="M27,2.90641711 C26.0062141,3.35935829 24.9349904,3.65700535 23.8250478,3.79935829 C24.9608031,3.11347594 25.8384321,2.02641711 26.251434,0.719358289 C25.1802103,1.36641711 23.9928298,1.81935829 22.7409178,2.07818182 C21.7213193,0.965240642 20.2887189,0.318181818 18.6625239,0.318181818 C15.6295411,0.318181818 13.1515296,2.8028877 13.1515296,5.86994652 C13.1515296,6.30994652 13.2031549,6.73700535 13.293499,7.13818182 C8.69885277,6.90524064 4.60755258,4.69229947 1.88432122,1.34053476 C1.40678776,2.15582888 1.13575526,3.11347594 1.13575526,4.1228877 C1.13575526,6.05112299 2.10372849,7.75935829 3.60086042,8.72994652 C2.68451243,8.72994652 1.83269598,8.47112299 1.08413002,8.0828877 C1.08413002,8.0828877 1.08413002,8.0828877 1.08413002,8.12171123 C1.08413002,10.8134759 2.99426386,13.0652406 5.52390057,13.5699465 C5.05927342,13.6993583 4.56883365,13.7640642 4.06548757,13.7640642 C3.71701721,13.7640642 3.36854685,13.7252406 3.03298279,13.6605348 C3.72992352,15.8475936 5.75621415,17.4781818 8.19550669,17.5170053 C6.31118547,19.0181818 3.92351816,19.8981818 1.31644359,19.8981818 C0.877629063,19.8981818 0.438814532,19.8722995 0,19.8205348 C2.45219885,21.3993583 5.36902486,22.3181818 8.49235182,22.3181818 C18.6625239,22.3181818 24.250956,13.8546524 24.250956,6.51700535 C24.250956,6.27112299 24.250956,6.03818182 24.2380497,5.79229947 C25.3221797,5.01582888 26.251434,4.03229947 27,2.90641711 Z" id="Path"></path>
        </g>
    </g>
</svg>